<svg xmlns="http://www.w3.org/2000/svg" viewBox="0 0 998 999"><defs><style>.cls-1,.cls-2{fill:#fff;}.cls-1{stroke:#95f;stroke-width:30px;}.cls-1,.cls-4{stroke-miterlimit:10;}.cls-3{fill:#95f;}.cls-4{fill:#fe0;stroke:#fff;stroke-width:15px;}.cls-5{fill:#5f5;}</style></defs><title>flat</title><g id="flat"><path id="shade" class="cls-1" d="M924,224A150,150,0,0,0,674.46,111.8a420.82,420.82,0,0,0-43.75-17l12.74-44.61A17.5,17.5,0,0,0,612.94,34.5L576,81a427,427,0,0,0-77-7C264.28,74,74,264.28,74,499a423.39,423.39,0,0,0,37.8,175.46A150,150,0,0,0,323.54,886.2,421.21,421.21,0,0,0,369.64,904l-13.09,45.84a17.31,17.31,0,0,0,8.81,20.36,17.61,17.61,0,0,0,8.09,2,17.35,17.35,0,0,0,13.61-6.64l38.14-47.89A427.35,427.35,0,0,0,499,924c234.72,0,425-190.28,425-425a423.39,423.39,0,0,0-37.8-175.46A149.43,149.43,0,0,0,924,224Z"/><circle id="circle" class="cls-2" cx="500" cy="499" r="425"/><circle id="center" class="cls-3" cx="500" cy="499" r="375"/><circle id="terminal-left-border" class="cls-2" cx="225" cy="774" r="150"/><circle id="terminal-right-border" class="cls-2" cx="775" cy="224" r="150"/><path id="lightning" class="cls-4" d="M618.8,38.18,230.67,525.6a10,10,0,0,0,6.24,16.11l222,35.51a10,10,0,0,1,8,12.62l-103.14,361c-3,10.51,10.62,17.53,17.44,9L769.33,472.4a10,10,0,0,0-6.24-16.11l-222-35.51a10,10,0,0,1-8-12.62l103.14-361C639.25,36.64,625.62,29.62,618.8,38.18Z"/><circle id="terminal-left" class="cls-5" cx="225" cy="774" r="100"/><circle id="terminal-right" class="cls-5" cx="775" cy="224" r="100"/></g></svg>